<svg width="19" height="18" viewBox="0 0 19 18" fill="none" xmlns="http://www.w3.org/2000/svg">
<path d="M9.5 8.47186C8.2625 8.47186 7.25 8.07811 6.4625 7.29061C5.675 6.50311 5.28125 5.49061 5.28125 4.25311C5.28125 3.01561 5.675 2.00311 6.4625 1.21561C7.25 0.428113 8.2625 0.0343628 9.5 0.0343628C10.7375 0.0343628 11.75 0.428113 12.5375 1.21561C13.325 2.00311 13.7187 3.01561 13.7187 4.25311C13.7187 5.49061 13.325 6.50311 12.5375 7.29061C11.75 8.07811 10.7375 8.47186 9.5 8.47186ZM0.5 17.5V14.8562C0.5 14.1437 0.678125 13.5344 1.03437 13.0281C1.39062 12.5219 1.85 12.1375 2.4125 11.875C3.66875 11.3125 4.87344 10.8906 6.02656 10.6094C7.17969 10.3281 8.3375 10.1875 9.5 10.1875C10.6625 10.1875 11.8156 10.3328 12.9594 10.6234C14.1031 10.9141 15.3031 11.3312 16.5594 11.875C17.1406 12.1375 17.6094 12.5219 17.9656 13.0281C18.3219 13.5344 18.5 14.1437 18.5 14.8562V17.5H0.5ZM2.1875 15.8125H16.8125V14.8562C16.8125 14.5562 16.7234 14.2703 16.5453 13.9984C16.3672 13.7266 16.1469 13.525 15.8844 13.3937C14.6844 12.8125 13.5875 12.4141 12.5937 12.1984C11.6 11.9828 10.5687 11.875 9.5 11.875C8.43125 11.875 7.39062 11.9828 6.37812 12.1984C5.36562 12.4141 4.26875 12.8125 3.0875 13.3937C2.825 13.525 2.60937 13.7266 2.44062 13.9984C2.27187 14.2703 2.1875 14.5562 2.1875 14.8562V15.8125ZM9.5 6.78436C10.2312 6.78436 10.8359 6.5453 11.3141 6.06717C11.7922 5.58905 12.0312 4.98436 12.0312 4.25311C12.0312 3.52186 11.7922 2.91718 11.3141 2.43905C10.8359 1.96093 10.2312 1.72186 9.5 1.72186C8.76875 1.72186 8.16406 1.96093 7.68594 2.43905C7.20781 2.91718 6.96875 3.52186 6.96875 4.25311C6.96875 4.98436 7.20781 5.58905 7.68594 6.06717C8.16406 6.5453 8.76875 6.78436 9.5 6.78436Z" fill="black" fill-opacity="0.5"/>
</svg>
